<svg version="1.1" id="Layer_1" xmlns="http://www.w3.org/2000/svg" xmlns:xlink="http://www.w3.org/1999/xlink" x="0px" y="0px"
	 width="100%" viewBox="0 0 800 800" enable-background="new 0 0 800 800" xml:space="preserve">
<path fill="#6CA13F" opacity="1.000000" stroke="none" 
	d="
M367.000000,0.999994 
	C388.354218,1.000000 409.708466,1.000000 431.710724,1.369076 
	C433.501007,1.927655 434.636414,2.197023 435.786438,2.295206 
	C493.290100,7.204426 547.071106,24.277750 596.991333,52.974648 
	C680.789429,101.146362 740.639404,170.142242 775.011536,260.737305 
	C788.627136,296.623993 796.383667,333.861572 799.244507,372.135101 
	C799.442627,374.785706 800.397217,377.379700 801.000000,380.000000 
	C801.000000,392.020905 801.000000,404.041779 800.745972,416.558655 
	C800.323364,417.029999 800.154785,417.005341 799.678101,416.828674 
	C793.746887,408.232300 788.388855,399.594299 782.407532,391.411835 
	C778.419250,385.955841 773.542847,381.149017 768.963257,375.622131 
	C766.225220,332.177734 756.304382,290.860992 738.711365,251.572571 
	C681.877319,124.651672 561.474792,41.343513 422.596649,32.754368 
	C355.883942,28.628412 292.587341,41.561916 233.278839,72.619431 
	C95.891136,144.563904 9.479927,293.114563 37.147285,460.827759 
	C53.919212,562.495361 106.192139,642.911560 190.286591,702.303345 
	C234.849106,733.775574 284.229218,754.379272 338.191589,764.437988 
	C340.984955,766.418701 343.425171,768.497437 346.231659,769.765564 
	C367.093323,779.191345 388.039795,788.429565 408.909363,797.838135 
	C410.160461,798.402161 410.979767,799.923889 412.000000,801.000000 
	C398.645782,801.000000 385.291534,801.000000 371.323944,800.624023 
	C368.758209,799.884521 366.820312,799.380371 364.851410,799.177734 
	C281.495392,790.600342 206.989761,760.487549 143.106461,706.040894 
	C65.825516,640.175598 19.483177,556.775024 4.737414,456.077209 
	C3.656253,448.694031 2.253329,441.357971 1.000000,434.000000 
	C1.000000,412.979095 1.000000,391.958221 1.374975,370.307739 
	C2.107089,367.217743 2.590866,364.768158 2.802511,362.295258 
	C6.402304,320.234589 16.628002,279.714844 34.197571,241.473755 
	C83.022400,135.203979 162.611908,61.832607 272.770966,22.151560 
	C301.846680,11.678030 331.797546,4.556503 362.847565,2.901467 
	C364.261475,2.826103 365.617188,1.658741 367.000000,0.999994 
z"/>
<path fill="#FEFEFE" opacity="1.000000" stroke="none" 
	d="
M799.986206,416.980682 
	C800.154785,417.005341 800.323364,417.029999 800.745972,417.027344 
	C801.000000,544.926514 801.000000,672.853027 801.000000,801.000000 
	C678.310791,801.000000 555.621399,801.000000 432.593933,800.602295 
	C452.410431,796.763611 472.884979,794.607483 492.669617,789.680786 
	C668.925110,745.789978 791.283936,597.106567 799.986206,416.980682 
z"/>
<path fill="#FEFFFE" opacity="1.000000" stroke="none" 
	d="
M801.000000,379.531342 
	C800.397217,377.379700 799.442627,374.785706 799.244507,372.135101 
	C796.383667,333.861572 788.627136,296.623993 775.011536,260.737305 
	C740.639404,170.142242 680.789429,101.146362 596.991333,52.974648 
	C547.071106,24.277750 493.290100,7.204426 435.786438,2.295206 
	C434.636414,2.197023 433.501007,1.927655 432.179382,1.369076 
	C554.928040,1.000000 677.856018,1.000000 801.000000,1.000000 
	C801.000000,127.020813 801.000000,253.041748 801.000000,379.531342 
z"/>
<path fill="#FEFFFE" opacity="1.000000" stroke="none" 
	d="
M1.000000,434.468658 
	C2.253329,441.357971 3.656253,448.694031 4.737414,456.077209 
	C19.483177,556.775024 65.825516,640.175598 143.106461,706.040894 
	C206.989761,760.487549 281.495392,790.600342 364.851410,799.177734 
	C366.820312,799.380371 368.758209,799.884521 370.855286,800.624023 
	C247.739899,801.000000 124.479782,801.000000 1.000000,801.000000 
	C1.000000,678.979187 1.000000,556.958252 1.000000,434.468658 
z"/>
<path fill="#FEFFFE" opacity="1.000000" stroke="none" 
	d="
M366.531342,0.999994 
	C365.617188,1.658741 364.261475,2.826103 362.847565,2.901467 
	C331.797546,4.556503 301.846680,11.678030 272.770966,22.151560 
	C162.611908,61.832607 83.022400,135.203979 34.197571,241.473755 
	C16.628002,279.714844 6.402304,320.234589 2.802511,362.295258 
	C2.590866,364.768158 2.107089,367.217743 1.374975,369.839111 
	C1.000000,247.073227 1.000000,124.146454 1.000000,1.000000 
	C122.687469,1.000000 244.375076,1.000000 366.531342,0.999994 
z"/>
<path fill="#0B4D27" opacity="1.000000" stroke="none" 
	d="
M799.678101,416.828674 
	C791.283936,597.106567 668.925110,745.789978 492.669617,789.680786 
	C472.884979,794.607483 452.410431,796.763611 432.127899,800.602295 
	C425.645599,801.000000 419.291199,801.000000 412.468384,801.000000 
	C410.979767,799.923889 410.160461,798.402161 408.909363,797.838135 
	C388.039795,788.429565 367.093323,779.191345 346.231659,769.765564 
	C343.425171,768.497437 340.984955,766.418701 338.606323,764.418335 
	C375.545746,770.194885 412.350281,772.080872 449.329712,766.720398 
	C537.566772,753.929626 612.247864,715.127686 672.379089,649.253845 
	C728.214966,588.085571 760.273926,515.965637 768.011536,433.468292 
	C769.794006,414.463684 768.787170,395.197479 769.063965,376.051666 
	C773.542847,381.149017 778.419250,385.955841 782.407532,391.411835 
	C788.388855,399.594299 793.746887,408.232300 799.678101,416.828674 
z"/>
<path fill="#FCFDFB" opacity="1.000000" stroke="none" 
	d="
M768.963196,375.622131 
	C768.787170,395.197479 769.794006,414.463684 768.011536,433.468292 
	C760.273926,515.965637 728.214966,588.085571 672.379089,649.253845 
	C612.247864,715.127686 537.566772,753.929626 449.329712,766.720398 
	C412.350281,772.080872 375.545746,770.194885 338.422791,764.140991 
	C284.229218,754.379272 234.849106,733.775574 190.286591,702.303345 
	C106.192139,642.911560 53.919212,562.495361 37.147285,460.827759 
	C9.479927,293.114563 95.891136,144.563904 233.278839,72.619431 
	C292.587341,41.561916 355.883942,28.628412 422.596649,32.754368 
	C561.474792,41.343513 681.877319,124.651672 738.711365,251.572571 
	C756.304382,290.860992 766.225220,332.177734 768.963196,375.622131 
M122.153229,239.096954 
	C121.868103,238.917419 121.582977,238.737869 121.070557,238.095993 
	C120.717911,237.726807 120.365273,237.357635 119.772171,236.365189 
	C118.239044,234.969925 116.705917,233.574677 115.172791,232.179413 
	C114.818916,232.478210 114.465042,232.777023 114.111168,233.075821 
	C115.771461,236.325623 117.431763,239.575409 119.259392,243.458054 
	C119.366478,243.648163 119.473564,243.838287 119.469635,244.425751 
	C119.518402,244.716537 119.667595,244.940521 120.110611,245.773331 
	C121.590904,248.930206 123.071198,252.087082 124.683990,255.977386 
	C125.984215,258.521942 127.284431,261.066528 128.574783,263.868408 
	C128.574783,263.868408 128.737411,264.068054 128.778000,264.803894 
	C130.201843,267.182098 131.625687,269.560272 132.997055,271.981750 
	C132.997055,271.981750 133.063828,271.969330 133.075241,272.583313 
	C133.605682,273.161316 134.136108,273.739288 134.900940,274.076538 
	C134.900940,274.076538 134.640259,274.288544 134.692856,274.880920 
	C135.176743,275.447510 135.660614,276.014069 136.528351,277.117493 
	C137.857986,278.509949 139.187622,279.902374 140.705704,281.838135 
	C141.161346,282.147614 141.616989,282.457123 142.475342,283.184174 
	C142.786880,283.412262 143.098434,283.640381 143.591492,284.473114 
	C145.428009,285.588013 147.264542,286.702881 149.112839,287.899292 
	C149.112839,287.899292 149.191071,287.873505 149.519852,288.412445 
	C150.293320,288.697418 151.066772,288.982391 151.939636,289.048615 
	C151.939636,289.048615 151.808121,289.249725 152.162476,289.808533 
	C153.353745,290.326782 154.545029,290.845032 155.768280,291.035156 
	C155.768280,291.035156 155.715775,291.363800 156.060699,291.940430 
	C160.753891,294.026764 165.447098,296.113068 170.140289,298.199402 
	C170.505783,297.801636 170.871292,297.403870 171.236786,297.006104 
	C170.758057,295.019714 170.279343,293.033356 169.791443,290.383301 
	C169.650986,289.966583 169.510529,289.549896 169.572998,288.395599 
	C168.786911,285.875580 168.000824,283.355530 167.042160,280.960541 
	C167.042160,280.960541 167.233047,280.865784 167.253326,280.101288 
	C165.556274,277.013214 163.859222,273.925140 161.999939,270.906372 
	C161.999939,270.906372 162.170929,270.864838 162.068665,270.359833 
	C161.803116,270.157837 161.537567,269.955811 161.006989,269.823975 
	C161.006989,269.823975 161.269028,269.733826 161.168091,269.253296 
	C161.010651,268.936188 160.758301,268.743164 160.380142,268.623016 
	C160.380142,268.623016 160.335464,268.583221 160.198120,268.139374 
	C160.025131,267.854248 159.773575,267.687927 159.407516,267.586182 
	C159.407516,267.586182 159.357147,267.545044 159.203964,267.110168 
	C159.021759,266.835083 158.766891,266.677643 158.284805,266.690704 
	C158.284805,266.690704 158.405365,266.580505 158.253036,266.050049 
	C157.814209,265.755219 157.375381,265.460419 156.681717,264.914215 
	C156.681717,264.914215 156.347153,264.786926 156.117172,264.270020 
	C155.801651,264.079681 155.486115,263.889374 154.864365,263.300873 
	C154.432999,263.053772 154.001633,262.806671 153.262955,262.068329 
	C152.925720,261.892761 152.588486,261.717163 151.966446,261.221649 
	C151.737396,261.040375 151.479095,260.924011 150.881912,260.338257 
	C150.339935,260.066864 149.797958,259.795441 148.916870,259.176056 
	C148.478180,258.973724 148.039490,258.771423 147.332840,258.056732 
	C146.841812,257.797119 146.350769,257.537506 145.766068,257.146027 
	C145.766068,257.146027 145.604340,257.143768 145.552917,256.844360 
	C145.382996,256.648132 145.205139,256.640747 144.510666,256.358673 
	C144.303131,256.260956 144.095581,256.163239 143.586945,255.473541 
	C141.819641,254.525833 140.052338,253.578125 138.200684,252.882706 
	C138.200684,252.882706 138.331879,252.651291 138.162079,252.169449 
	C137.725998,251.952118 137.289902,251.734787 136.425629,251.178696 
	C136.088333,251.044846 135.751022,250.911011 135.221939,250.265274 
	C134.770493,250.005356 134.319031,249.745438 133.475357,249.114182 
	C133.154800,248.953873 132.834259,248.793579 132.207657,248.140137 
	C131.865601,247.974640 131.523544,247.809143 130.918411,247.301834 
	C130.701111,247.102570 130.448807,246.969849 129.945709,246.283707 
	C128.619843,245.216599 127.293983,244.149490 125.615913,242.618195 
	C124.893768,241.984833 124.171623,241.351456 123.254585,240.225983 
	C122.969124,240.033310 122.683662,239.840622 122.347496,239.629456 
	C122.347496,239.629456 122.344307,239.575592 122.153229,239.096954 
M393.566772,465.017792 
	C393.839661,464.789948 394.112549,464.562103 394.230957,464.243744 
	C394.230957,464.243744 394.336212,464.388641 395.021912,464.233673 
	C398.552521,462.213623 402.083160,460.193542 406.271484,458.087280 
	C410.194397,455.773590 414.117310,453.459900 418.741425,450.936646 
	C421.316101,449.778900 423.960449,448.753815 426.454803,447.443237 
	C458.950653,430.369781 493.051605,417.188843 528.188965,406.886597 
	C546.500305,401.517792 565.334167,397.865265 584.037598,393.940643 
	C589.474915,392.799683 590.631165,390.514862 589.777283,385.489990 
	C588.574829,378.413544 587.961304,371.237000 587.801758,364.194824 
	C596.833618,367.495728 605.568787,371.778442 615.722900,373.372894 
	C614.104187,361.571106 611.101013,351.212646 602.493774,343.738556 
	C597.780334,339.645721 592.101379,336.664917 586.914185,332.307648 
	C587.647278,329.291321 588.380371,326.275024 589.684143,323.409485 
	C589.861938,323.493713 590.039795,323.577972 590.466553,324.267181 
	C591.063843,324.410309 591.661133,324.553436 592.835938,325.139801 
	C600.369629,328.274811 608.044250,330.749969 616.396423,330.892395 
	C614.591492,313.831848 605.692627,302.292542 591.740234,293.522766 
	C591.415833,293.422607 591.091492,293.322449 590.396301,293.096375 
	C590.396301,293.096375 590.058289,292.898560 590.061707,292.176880 
	C592.035645,290.122650 594.009583,288.068420 596.685669,286.235718 
	C603.116638,288.506378 609.547668,290.777008 616.396362,293.536621 
	C618.188477,294.706635 619.980591,295.876648 621.941895,297.966278 
	C621.879517,325.580566 621.799072,353.194855 621.791443,380.809143 
	C621.790833,382.888214 622.309204,384.967407 622.586365,387.046539 
	C623.148987,387.031281 623.711609,387.016022 624.274292,387.000793 
	C624.553711,385.344452 625.054382,383.690582 625.072571,382.031403 
	C625.136414,376.210907 625.009460,370.388580 624.998962,364.566925 
	C624.932434,327.642639 624.984070,290.717651 624.737061,253.794632 
	C624.681824,245.528519 623.593445,237.269318 623.355896,228.299988 
	C625.014343,224.677551 626.880920,221.133392 628.280640,217.413574 
	C630.192688,212.332336 632.607239,207.228149 633.290405,201.938034 
	C635.029175,188.472763 629.550842,176.935150 622.147217,165.067902 
	C620.465210,169.656601 619.077393,173.189163 617.870544,176.782471 
	C614.134705,187.905624 610.695740,199.164368 614.997253,210.860458 
	C617.280884,217.069687 620.417542,222.965210 622.793335,229.889862 
	C622.459534,239.608780 622.125793,249.327682 621.165588,258.807831 
	C619.461548,255.529968 617.757446,252.252106 615.902100,248.571991 
	C615.902100,248.571991 615.839722,248.146790 615.922852,247.683548 
	C615.886841,247.345993 615.723206,247.090042 615.206604,246.139847 
	C613.144592,233.257980 606.227966,223.496292 595.686218,216.181610 
	C586.844177,210.046310 577.871704,204.098953 568.664062,197.463608 
	C566.567017,195.847198 564.535095,194.136993 562.362976,192.628754 
	C538.017090,175.723969 511.711273,162.807678 482.928375,155.643570 
	C467.690247,151.850769 452.034546,149.735657 436.354340,146.102371 
	C436.365784,145.315918 436.377228,144.529465 436.713379,143.537216 
	C436.575012,143.116776 436.436615,142.696350 436.119812,141.379822 
	C433.602509,110.773674 419.145325,85.692421 400.390350,62.172897 
	C384.403625,81.015945 363.895966,115.018265 364.663147,146.924240 
	C354.455872,148.918900 344.186157,150.640381 334.052704,152.957916 
	C299.467468,160.867630 268.097168,175.880722 239.291611,196.436508 
	C237.109024,197.994019 235.426971,201.462265 231.916626,198.365311 
	C231.820389,198.280426 230.030411,200.115387 228.657700,201.609894 
	C224.146896,204.592041 219.766647,207.798706 215.099625,210.512161 
	C203.411362,217.307831 192.741379,225.074112 188.271759,238.608521 
	C186.566345,243.772644 185.690598,249.210770 184.436752,254.524017 
	C184.917603,254.736343 185.398453,254.948669 185.879303,255.160995 
	C191.802338,252.300125 197.725372,249.439270 204.196976,246.656357 
	C204.453888,246.415390 204.710800,246.174438 205.265320,245.726700 
	C205.265320,245.726700 205.606964,245.605850 206.317764,245.792282 
	C207.205933,244.854477 208.094101,243.916672 209.319092,242.550507 
	C209.778290,242.261749 210.237488,241.973007 211.496063,241.791626 
	C218.247940,240.217697 219.631744,241.073883 219.673599,247.547363 
	C218.840347,248.079330 218.007080,248.611298 216.644653,249.180359 
	C216.420624,249.437988 216.196594,249.695618 215.447235,250.377792 
	C214.077148,251.309494 212.703125,252.235489 211.337585,253.173782 
	C201.039719,260.249908 192.096893,268.563538 188.063858,280.807251 
	C186.420654,285.795776 185.717316,291.093933 184.586349,296.251190 
	C185.070053,296.477356 185.553741,296.703491 186.037445,296.929657 
	C193.642883,293.361847 201.248337,289.794037 209.027161,286.967651 
	C209.984314,288.583984 210.941452,290.200317 211.598602,292.059509 
	C211.598602,292.059509 211.251282,292.227936 210.722107,292.292755 
	C210.505173,292.560944 210.288223,292.829102 209.581284,293.547729 
	C194.524048,303.472168 187.193680,317.636047 185.919907,336.546783 
	C195.786392,331.105682 204.708984,326.185089 213.631577,321.264496 
	C214.045364,321.499908 214.459152,321.735352 214.872925,321.970764 
	C213.350281,324.865295 211.827637,327.759857 210.069901,330.640411 
	C210.069901,330.640411 209.998672,330.864868 209.327957,331.018646 
	C205.844116,334.647827 202.360260,338.277039 198.931381,341.961700 
	C198.931381,341.961700 198.949554,341.885742 198.428436,342.049438 
	C198.247574,342.353699 198.066696,342.657990 197.414719,343.158752 
	C197.282135,343.461578 197.149536,343.764404 196.421951,344.377533 
	C194.916855,347.239227 193.411758,350.100891 191.407074,353.303345 
	C191.303726,353.881714 191.200378,354.460052 190.590561,355.568787 
	C189.194336,360.854279 187.798111,366.139771 186.401886,371.425293 
	C186.898361,371.688843 187.394836,371.952393 187.891312,372.215942 
	C189.628433,370.837585 191.365570,369.459229 193.012360,368.035950 
	C193.012360,368.035950 193.073029,368.116577 193.771088,368.010162 
	C197.048431,366.059448 200.325775,364.108734 203.847794,362.265869 
	C203.847794,362.265869 203.997360,362.044250 204.674667,361.970093 
	C206.151352,361.009674 207.628052,360.049225 209.001617,359.050690 
	C209.001617,359.050690 209.084137,359.123352 209.875031,359.038300 
	C210.909271,359.020508 211.943527,359.002686 212.858932,359.916870 
	C213.223160,367.399597 213.639603,374.880280 213.929794,382.365875 
	C214.076950,386.161865 215.552322,388.251373 219.531219,389.361176 
	C229.945267,392.265961 240.235168,395.631470 250.520020,398.980835 
	C284.599243,410.079132 318.059723,422.734100 350.045654,439.033417 
	C359.378937,443.789429 368.635986,448.695038 378.147095,454.112061 
	C379.448334,455.737396 380.749573,457.362732 382.173828,459.632690 
	C383.081787,461.102722 383.989716,462.572754 384.883118,464.793091 
	C385.036469,465.525909 385.189819,466.258728 385.080627,467.608673 
	C385.029755,468.049500 384.978882,468.490356 384.187286,468.877258 
	C381.271698,467.713257 378.191681,466.846863 375.465210,465.340576 
	C336.419373,443.768829 295.077972,427.785583 252.966019,413.294098 
	C190.774734,391.893005 126.867233,383.165771 61.387299,384.116394 
	C57.261677,384.176300 53.143951,384.780121 49.022556,385.130890 
	C49.013210,385.657318 49.003868,386.183716 48.994526,386.710114 
	C51.843487,387.181091 54.675716,387.860718 57.544003,388.090790 
	C85.983665,390.372375 114.021072,395.139374 141.782623,401.616730 
	C215.791656,418.884644 284.603455,448.318970 348.152191,489.995270 
	C350.811066,491.738983 352.640778,491.746643 355.194214,489.974060 
	C365.171021,483.048157 375.284760,476.319519 385.976685,469.347046 
	C387.056274,468.624420 388.135834,467.901794 389.123169,467.118469 
	C389.123169,467.118469 389.153687,467.224579 389.804352,467.145996 
	C390.879425,466.437103 391.954498,465.728210 393.005341,464.995819 
	C393.005341,464.995819 393.013519,465.027130 393.566772,465.017792 
M184.537613,215.504349 
	C191.524490,197.429276 186.191422,181.123535 177.218979,163.750534 
	C174.973984,169.113083 173.116257,173.135544 171.587357,177.279312 
	C166.712051,190.492767 164.676208,203.851654 171.696442,216.927567 
	C174.908234,222.909897 175.929337,229.088394 175.839111,235.667847 
	C175.567459,255.481659 175.189484,275.295288 175.105148,295.110077 
	C174.993149,321.422089 175.075089,347.735321 175.221252,374.047241 
	C175.233871,376.316650 176.348557,378.579956 176.951309,380.846100 
	C177.668808,380.762848 178.386322,380.679626 179.103836,380.596375 
	C179.442215,378.627808 180.084930,376.657593 180.074188,374.690948 
	C179.843002,332.392334 179.430542,290.094360 179.331406,247.795639 
	C179.309082,238.266632 177.567383,228.426697 182.885513,218.947556 
	C183.278641,217.985138 183.671753,217.022705 184.537613,215.504349 
M212.966492,649.189819 
	C227.403809,626.311707 241.841141,603.433533 256.418396,580.333679 
	C198.139297,535.745117 133.498260,503.368256 60.692444,484.899719 
	C86.937782,579.614502 141.857300,651.304871 224.520294,702.523071 
	C284.400146,613.314575 358.027374,539.022278 450.516968,485.362854 
	C542.184875,432.180237 639.580994,394.145447 746.716980,385.726593 
	C744.933105,384.993408 743.320679,384.876526 741.706421,384.799133 
	C715.618530,383.548767 689.841919,386.576202 664.027954,389.898773 
	C616.513611,396.014526 569.726868,405.321960 524.086670,420.023804 
	C426.258728,451.536591 340.214447,501.912231 271.829498,579.704407 
	C251.470718,602.863831 233.173080,627.835144 213.476944,651.593628 
	C213.295837,651.029968 213.114731,650.466370 212.966492,649.189819 
M383.372223,735.877747 
	C380.462494,740.359558 377.552795,744.841431 374.302429,749.847961 
	C376.650024,750.117249 377.793518,750.304626 378.944061,750.372070 
	C400.620911,751.641785 422.247833,750.994019 443.771729,748.168396 
	C534.975342,736.195557 610.520813,695.225281 669.732178,624.848267 
	C701.802917,586.729858 724.260254,543.324219 737.239380,495.135834 
	C737.849121,492.872040 737.964905,490.475189 738.512756,486.776184 
	C724.404480,490.696564 711.406799,493.672821 698.834167,497.910065 
	C638.637268,518.197449 582.535767,546.391296 530.959595,583.790344 
	C473.026642,625.798767 423.645721,675.850403 383.372223,735.877747 
M727.725952,451.130707 
	C733.286926,450.081787 738.870483,449.134705 744.391418,447.905914 
	C745.632263,447.629730 747.523254,446.478424 747.640686,445.544617 
	C748.690369,437.195099 749.409607,428.804016 750.327515,419.384766 
	C669.561523,427.381714 594.788269,450.844574 524.111694,487.579620 
	C417.602142,542.939392 332.419647,621.301208 269.875305,724.378540 
	C271.317566,725.183228 272.116791,725.809937 273.023956,726.108093 
	C286.447144,730.519104 299.921387,734.778442 313.296661,739.329102 
	C317.388702,740.721375 319.669403,739.432251 321.896423,736.039001 
	C329.844086,723.929382 337.441925,711.530579 346.192200,700.016357 
	C443.532501,571.929932 569.528992,487.575256 727.725952,451.130707 
M162.019913,478.415588 
	C206.652878,495.941620 248.407425,518.856750 287.344116,546.369507 
	C298.040710,536.285400 308.044495,526.854492 318.293823,517.192017 
	C237.423615,461.160217 148.151199,429.114044 50.010201,418.484253 
	C51.156082,427.081604 52.302944,434.612854 53.107494,442.180450 
	C53.503433,445.904663 55.151455,447.375092 58.854546,448.194214 
	C93.661835,455.893799 128.157059,464.715088 162.019913,478.415588 
M675.696350,350.183136 
	C683.631897,339.885559 686.667603,327.390869 692.282898,315.078308 
	C679.771790,322.217255 668.210876,328.655609 656.814453,335.373016 
	C649.286743,339.810089 642.626465,345.364899 638.404846,353.213074 
	C635.454773,358.697357 633.064880,364.443237 633.383850,370.921539 
	C646.898560,371.542297 665.373901,362.490662 675.696350,350.183136 
M132.516586,330.023071 
	C125.174782,325.390320 117.832962,320.757568 110.383812,316.057098 
	C110.735214,339.277557 147.713150,376.210541 169.215103,374.662018 
	C167.862885,365.422638 164.832840,356.951508 159.078018,349.539551 
	C152.233597,340.724182 142.583328,335.702240 132.516586,330.023071 
M117.941383,290.552734 
	C119.864586,294.607178 121.717094,298.696930 123.723106,302.709991 
	C132.861771,320.992126 149.183182,329.870056 167.962143,336.812622 
	C167.820862,334.769104 167.792435,333.489624 167.635986,332.225983 
	C165.557281,315.436523 156.600357,303.262207 142.166840,295.003357 
	C131.998383,289.184937 122.490196,282.600281 114.491066,273.960663 
	C113.491386,272.880951 112.131172,272.135071 110.938004,271.234497 
	C110.669617,271.506592 110.401230,271.778687 110.132835,272.050781 
	C112.638077,277.984192 115.143318,283.917572 117.941383,290.552734 
M639.243591,330.812469 
	C654.073181,327.945923 667.132629,321.696625 674.392151,307.929260 
	C679.045654,299.104095 681.554321,289.147858 685.379944,278.730652 
	C678.017517,282.850922 672.325317,286.382660 666.340698,289.317993 
	C650.906799,296.887909 637.881165,306.588348 633.072510,324.252075 
	C632.422302,326.640076 631.209106,328.874786 629.897095,332.050781 
	C633.559631,331.563690 635.985474,331.241058 639.243591,330.812469 
M680.960388,237.674622 
	C675.618225,241.865250 670.440552,246.290314 664.890991,250.185425 
	C658.374512,254.759232 651.265930,258.512634 644.898987,263.270660 
	C635.482422,270.307709 631.948608,280.699432 629.471252,292.467194 
	C643.079834,289.207611 656.348877,286.930023 665.255249,276.105988 
	C669.591858,270.835571 672.583740,264.343994 675.571838,258.111511 
	C678.436462,252.136658 680.572510,245.805725 682.893860,239.580948 
	C683.690491,237.444870 683.504150,237.375381 680.960388,237.674622 
M665.321777,232.764282 
	C669.685974,221.926743 674.050232,211.089203 678.773438,199.360153 
	C668.982727,205.130661 660.360535,210.038467 651.934082,215.262100 
	C648.426270,217.436630 645.077393,220.015778 642.104187,222.876526 
	C633.180664,231.462616 629.771851,242.473419 628.281433,254.955368 
	C642.287048,249.775360 656.713623,246.869965 665.321777,232.764282 
M156.730560,223.770432 
	C146.413864,216.112228 136.097153,208.454041 126.017265,200.971619 
	C125.621956,224.196564 149.807526,254.598389 170.106857,255.305893 
	C169.058304,243.530777 165.632431,232.903717 156.730560,223.770432 
z"/>
<path fill="#6BA13D" opacity="1.000000" stroke="none" 
	d="
M383.576782,735.579468 
	C423.645721,675.850403 473.026642,625.798767 530.959595,583.790344 
	C582.535767,546.391296 638.637268,518.197449 698.834167,497.910065 
	C711.406799,493.672821 724.404480,490.696564 738.512756,486.776184 
	C737.964905,490.475189 737.849121,492.872040 737.239380,495.135834 
	C724.260254,543.324219 701.802917,586.729858 669.732178,624.848267 
	C610.520813,695.225281 534.975342,736.195557 443.771729,748.168396 
	C422.247833,750.994019 400.620911,751.641785 378.944061,750.372070 
	C377.793518,750.304626 376.650024,750.117249 374.302429,749.847961 
	C377.552795,744.841431 380.462494,740.359558 383.576782,735.579468 
z"/>
<path fill="#0A4D27" opacity="1.000000" stroke="none" 
	d="
M213.931030,651.976257 
	C233.173080,627.835144 251.470718,602.863831 271.829498,579.704407 
	C340.214447,501.912231 426.258728,451.536591 524.086670,420.023804 
	C569.726868,405.321960 616.513611,396.014526 664.027954,389.898773 
	C689.841919,386.576202 715.618530,383.548767 741.706421,384.799133 
	C743.320679,384.876526 744.933105,384.993408 746.716980,385.726593 
	C639.580994,394.145447 542.184875,432.180237 450.516968,485.362854 
	C358.027374,539.022278 284.400146,613.314575 224.520294,702.523071 
	C141.857300,651.304871 86.937782,579.614502 60.692444,484.899719 
	C133.498260,503.368256 198.139297,535.745117 256.418396,580.333679 
	C241.841141,603.433533 227.403809,626.311707 212.683868,649.759766 
	C209.986664,654.852661 207.572098,659.375610 205.157516,663.898560 
	C205.470413,664.080322 205.783325,664.262024 206.096222,664.443787 
	C208.707825,660.287903 211.319412,656.132080 213.931030,651.976257 
z"/>
<path fill="#0B4D24" opacity="1.000000" stroke="none" 
	d="
M382.050812,458.988037 
	C380.749573,457.362732 379.448334,455.737396 378.304565,453.526367 
	C388.061218,428.665955 393.978455,403.629974 394.849915,377.280731 
	C353.358887,373.431976 330.989349,348.072998 317.838379,311.625427 
	C317.328278,309.656555 316.801727,308.047272 316.293579,306.059265 
	C314.135193,295.247284 311.958344,284.813965 309.572784,273.380341 
	C325.863281,276.711639 340.037781,280.741577 353.153290,287.909119 
	C373.621277,299.094727 388.779449,314.558319 393.441467,338.390106 
	C393.532806,338.856842 394.063904,339.237549 394.761078,340.137726 
	C394.761078,320.384766 394.761078,301.340729 394.761078,282.243256 
	C393.180695,282.074890 392.030518,281.943817 390.878571,281.830902 
	C360.710358,278.873199 338.795380,264.061981 325.914978,236.421310 
	C323.249481,230.701263 320.995575,224.789398 318.510498,218.548767 
	C314.252563,204.080795 311.449402,189.804459 311.179565,174.309708 
	C352.127563,185.628525 384.752930,205.456284 397.702148,248.686966 
	C397.815765,239.908829 397.912292,231.293091 396.788940,222.839417 
	C396.158752,218.097061 394.413422,212.962540 391.618256,209.139694 
	C377.922150,190.408218 367.966553,170.251923 365.439087,146.891113 
	C363.895966,115.018265 384.403625,81.015945 400.390350,62.172897 
	C419.145325,85.692421 433.602509,110.773674 436.112457,142.068954 
	C436.199615,143.086395 436.294128,143.414703 436.388641,143.743011 
	C436.377228,144.529465 436.365784,145.315918 436.298553,146.896942 
	C434.025665,169.056946 424.975067,187.683609 412.243500,204.463928 
	C405.564728,213.266556 401.888824,222.308640 403.072815,233.339340 
	C403.425446,236.624756 403.007629,239.990570 402.979095,243.319855 
	C402.952271,246.447800 402.973328,249.576157 402.973328,252.704330 
	C414.497192,208.259583 445.337891,185.138931 487.816803,173.456970 
	C488.416260,189.987305 487.325592,205.643051 483.017700,221.325714 
	C482.663330,221.928925 482.490906,222.219543 482.382690,222.532364 
	C470.266663,257.574371 447.153198,279.121735 409.043823,282.127869 
	C405.492981,282.407990 405.736755,284.563202 405.743805,286.961182 
	C405.788544,302.117859 405.808533,317.274658 405.835297,332.431396 
	C405.839203,334.640045 405.835846,336.848694 405.835846,339.057312 
	C414.736877,322.467438 424.399567,307.097961 439.796387,296.168396 
	C455.037231,285.349548 471.986572,278.489227 490.241302,273.729370 
	C490.446747,275.155609 490.714050,275.963745 490.652191,276.745819 
	C490.114166,283.547821 489.639893,290.358215 488.916901,297.141632 
	C485.099487,332.956879 465.340759,356.737274 432.742004,370.322601 
	C424.690155,373.678162 415.947357,375.375824 406.093140,378.252838 
	C410.038147,402.322784 414.039154,426.734497 418.040192,451.146179 
	C414.117310,453.459900 410.194397,455.773590 405.498383,458.098267 
	C402.449829,458.481232 400.163177,458.795990 397.901794,459.239746 
	C395.094299,459.790710 393.310822,461.140564 394.336212,464.388641 
	C394.336212,464.388641 394.230957,464.243744 394.038391,464.308838 
	C393.568390,464.591675 393.290955,464.809387 393.013519,465.027130 
	C393.013519,465.027130 393.005341,464.995819 392.637054,465.001160 
	C391.230408,465.745880 390.192047,466.485229 389.153687,467.224579 
	C389.153687,467.224579 389.123169,467.118469 388.783020,467.093872 
	C387.409637,467.043335 386.376373,467.017426 385.343140,466.991516 
	C385.189819,466.258728 385.036469,465.525909 385.158356,464.129517 
	C385.216156,459.893127 384.998688,456.320374 384.781250,452.747589 
	C384.371582,452.794830 383.961945,452.842072 383.552307,452.889313 
	C383.051788,454.922211 382.551300,456.955109 382.050812,458.988037 
z"/>
<path fill="#0A4D27" opacity="1.000000" stroke="none" 
	d="
M727.304321,451.203125 
	C569.528992,487.575256 443.532501,571.929932 346.192200,700.016357 
	C337.441925,711.530579 329.844086,723.929382 321.896423,736.039001 
	C319.669403,739.432251 317.388702,740.721375 313.296661,739.329102 
	C299.921387,734.778442 286.447144,730.519104 273.023956,726.108093 
	C272.116791,725.809937 271.317566,725.183228 269.875305,724.378540 
	C332.419647,621.301208 417.602142,542.939392 524.111694,487.579620 
	C594.788269,450.844574 669.561523,427.381714 750.327515,419.384766 
	C749.409607,428.804016 748.690369,437.195099 747.640686,445.544617 
	C747.523254,446.478424 745.632263,447.629730 744.391418,447.905914 
	C738.870483,449.134705 733.286926,450.081787 727.304321,451.203125 
z"/>
<path fill="#FCCE16" opacity="1.000000" stroke="none" 
	d="
M318.552002,218.965927 
	C320.995575,224.789398 323.249481,230.701263 325.914978,236.421310 
	C338.795380,264.061981 360.710358,278.873199 390.878571,281.830902 
	C392.030518,281.943817 393.180695,282.074890 394.761078,282.243256 
	C394.761078,301.340729 394.761078,320.384766 394.761078,340.137726 
	C394.063904,339.237549 393.532806,338.856842 393.441467,338.390106 
	C388.779449,314.558319 373.621277,299.094727 353.153290,287.909119 
	C340.037781,280.741577 325.863281,276.711639 309.572784,273.380341 
	C311.958344,284.813965 314.135193,295.247284 316.182739,306.438965 
	C311.939728,314.316345 307.182739,321.147278 303.840546,328.611694 
	C295.823486,346.517059 291.551941,365.390228 292.106445,385.109222 
	C292.247192,390.115326 293.581635,395.087860 294.367615,400.075836 
	C294.960876,399.996552 295.554169,399.917267 296.147461,399.837952 
	C296.147461,393.707794 295.640930,387.527466 296.241730,381.456787 
	C298.099426,362.685822 303.207184,344.666443 310.176056,327.196381 
	C312.270874,321.944916 315.248596,317.045654 317.821869,311.985046 
	C330.989349,348.072998 353.358887,373.431976 394.849915,377.280731 
	C393.978455,403.629974 388.061218,428.665955 378.194977,453.236359 
	C368.635986,448.695038 359.378937,443.789429 350.045654,439.033417 
	C318.059723,422.734100 284.599243,410.079132 250.520020,398.980835 
	C240.235168,395.631470 229.945267,392.265961 219.531219,389.361176 
	C215.552322,388.251373 214.076950,386.161865 213.929794,382.365875 
	C213.639603,374.880280 213.223160,367.399597 212.923859,359.120972 
	C213.000061,357.883942 213.011368,357.442841 213.312164,356.837799 
	C232.784973,343.333710 239.647995,323.372925 243.513504,300.361877 
	C240.196472,304.103485 237.944763,307.389526 234.990570,309.822693 
	C228.547623,315.129364 221.747208,320.001953 215.125977,324.666565 
	C215.918472,318.218140 219.103882,313.401276 223.312347,308.793243 
	C225.749100,304.759918 227.900558,300.896698 230.245422,296.760742 
	C232.026047,293.714050 233.613266,290.940094 235.417664,287.909454 
	C248.219635,269.253845 263.850525,253.757614 282.073944,241.123474 
	C293.744385,233.032455 306.360077,226.304779 318.552002,218.965927 
z"/>
<path fill="#FCCE16" opacity="1.000000" stroke="none" 
	d="
M418.390808,451.041412 
	C414.039154,426.734497 410.038147,402.322784 406.093140,378.252838 
	C415.947357,375.375824 424.690155,373.678162 432.742004,370.322601 
	C465.340759,356.737274 485.099487,332.956879 488.916901,297.141632 
	C489.639893,290.358215 490.114166,283.547821 490.652191,276.745819 
	C490.714050,275.963745 490.446747,275.155609 490.241302,273.729370 
	C471.986572,278.489227 455.037231,285.349548 439.796387,296.168396 
	C424.399567,307.097961 414.736877,322.467438 405.835846,339.057312 
	C405.835846,336.848694 405.839203,334.640045 405.835297,332.431396 
	C405.808533,317.274658 405.788544,302.117859 405.743805,286.961182 
	C405.736755,284.563202 405.492981,282.407990 409.043823,282.127869 
	C447.153198,279.121735 470.266663,257.574371 482.382690,222.532364 
	C482.490906,222.219543 482.663330,221.928925 483.354736,221.381958 
	C487.949402,223.416336 491.991089,225.703796 496.041412,227.975891 
	C524.213074,243.779327 546.944336,265.284882 562.501709,293.648041 
	C568.191956,304.022095 571.671753,315.608612 576.081177,326.964355 
	C572.139465,326.602875 568.276367,325.919067 564.463318,325.244110 
	C568.389893,340.189545 575.418457,353.496704 587.095886,364.103271 
	C587.961304,371.237000 588.574829,378.413544 589.777283,385.489990 
	C590.631165,390.514862 589.474915,392.799683 584.037598,393.940643 
	C565.334167,397.865265 546.500305,401.517792 528.188965,406.886597 
	C493.051605,417.188843 458.950653,430.369781 426.454803,447.443237 
	C423.960449,448.753815 421.316101,449.778900 418.390808,451.041412 
M505.863220,329.714050 
	C516.746582,353.930420 519.700989,379.750946 520.842834,405.938171 
	C527.759949,379.809296 511.675964,316.794891 495.010681,307.450409 
	C498.875183,315.389954 502.197479,322.215576 505.863220,329.714050 
z"/>
<path fill="#F3E8A9" opacity="1.000000" stroke="none" 
	d="
M576.159851,326.642029 
	C571.671753,315.608612 568.191956,304.022095 562.501709,293.648041 
	C546.944336,265.284882 524.213074,243.779327 496.041412,227.975891 
	C491.991089,225.703796 487.949402,223.416336 483.566650,221.079742 
	C487.325592,205.643051 488.416260,189.987305 487.816803,173.456970 
	C445.337891,185.138931 414.497192,208.259583 402.973328,252.704330 
	C402.973328,249.576157 402.952271,246.447800 402.979095,243.319855 
	C403.007629,239.990570 403.425446,236.624756 403.072815,233.339340 
	C401.888824,222.308640 405.564728,213.266556 412.243500,204.463928 
	C424.975067,187.683609 434.025665,169.056946 436.405060,147.277344 
	C452.034546,149.735657 467.690247,151.850769 482.928375,155.643570 
	C511.711273,162.807678 538.017090,175.723969 562.362976,192.628754 
	C564.535095,194.136993 566.567017,195.847198 568.551514,198.027252 
	C569.280884,202.576157 570.088074,206.569138 570.970520,210.545425 
	C575.957458,233.015640 589.067627,246.975235 612.507507,249.974442 
	C613.628479,250.117859 614.868713,249.328979 616.053345,248.974243 
	C617.757446,252.252106 619.461548,255.529968 621.571289,259.379547 
	C621.908936,272.316406 621.840820,284.681519 621.772705,297.046661 
	C619.980591,295.876648 618.188477,294.706635 616.386292,293.031952 
	C614.099548,276.148407 606.737610,263.176605 591.874756,254.890625 
	C585.351013,251.253632 579.188416,246.964371 572.900391,242.911545 
	C570.805420,241.561264 568.830322,240.024857 566.158447,238.114517 
	C572.206421,265.067169 575.858093,273.940552 595.983521,286.014191 
	C594.009583,288.068420 592.035645,290.122650 589.710999,292.501343 
	C581.301453,288.097839 573.242554,283.369934 565.608093,278.890961 
	C569.669434,294.978424 573.532410,312.157593 589.113464,323.258698 
	C588.380371,326.275024 587.647278,329.291321 586.518799,332.727417 
	C582.802185,330.978790 579.481018,328.810425 576.159851,326.642029 
z"/>
<path fill="#0B4D27" opacity="1.000000" stroke="none" 
	d="
M161.658325,478.277985 
	C128.157059,464.715088 93.661835,455.893799 58.854546,448.194214 
	C55.151455,447.375092 53.503433,445.904663 53.107494,442.180450 
	C52.302944,434.612854 51.156082,427.081604 50.010201,418.484253 
	C148.151199,429.114044 237.423615,461.160217 318.293823,517.192017 
	C308.044495,526.854492 298.040710,536.285400 287.344116,546.369507 
	C248.407425,518.856750 206.652878,495.941620 161.658325,478.277985 
z"/>
<path fill="#F3E8A9" opacity="1.000000" stroke="none" 
	d="
M318.510498,218.548767 
	C306.360077,226.304779 293.744385,233.032455 282.073944,241.123474 
	C263.850525,253.757614 248.219635,269.253845 234.940521,287.856720 
	C233.606110,288.013855 232.965958,287.966980 232.440155,287.546417 
	C232.729538,286.146606 232.904602,285.120483 233.329376,283.952759 
	C233.881393,283.164062 234.183670,282.516968 234.617249,281.521088 
	C235.540741,278.841278 236.332916,276.510254 237.315979,274.024780 
	C237.736435,273.616150 237.855194,273.317841 237.962585,272.654175 
	C238.179550,271.672638 238.297073,271.012329 238.616516,270.101257 
	C239.060532,269.250946 239.302612,268.651459 239.831909,267.919678 
	C240.996033,265.847076 241.872925,263.906738 242.749817,261.966400 
	C242.326263,261.759247 241.902710,261.552063 241.479172,261.344879 
	C240.266602,263.524536 239.054047,265.704163 237.743164,268.147125 
	C237.565247,268.770996 237.485672,269.131531 237.154755,269.559418 
	C236.613922,269.816681 236.324417,270.006653 235.843933,270.272217 
	C235.414566,270.514771 235.273865,270.742218 235.021820,271.305817 
	C228.893860,280.273315 220.809174,286.512604 211.898590,291.816650 
	C210.941452,290.200317 209.984314,288.583984 208.994171,286.306335 
	C213.811737,280.491211 219.401291,275.835602 223.305725,270.043976 
	C227.237839,264.211273 229.834183,257.380035 232.389572,250.745148 
	C234.866440,244.314178 236.547104,237.576569 238.560394,231.029053 
	C232.179642,236.573227 226.124390,241.834579 220.069138,247.095932 
	C219.631744,241.073883 218.247940,240.217697 211.209015,241.428040 
	C220.690613,233.402740 224.979568,222.590942 227.886902,211.084839 
	C228.703842,207.851715 228.672516,204.404251 229.030243,201.055084 
	C230.030411,200.115387 231.820389,198.280426 231.916626,198.365311 
	C235.426971,201.462265 237.109024,197.994019 239.291611,196.436508 
	C268.097168,175.880722 299.467468,160.867630 334.052704,152.957916 
	C344.186157,150.640381 354.455872,148.918900 365.051117,146.907684 
	C367.966553,170.251923 377.922150,190.408218 391.618256,209.139694 
	C394.413422,212.962540 396.158752,218.097061 396.788940,222.839417 
	C397.912292,231.293091 397.815765,239.908829 397.702148,248.686966 
	C384.752930,205.456284 352.127563,185.628525 311.179565,174.309708 
	C311.449402,189.804459 314.252563,204.080795 318.510498,218.548767 
z"/>
<path fill="#0D4E29" opacity="1.000000" stroke="none" 
	d="
M385.347595,469.517517 
	C375.284760,476.319519 365.171021,483.048157 355.194214,489.974060 
	C352.640778,491.746643 350.811066,491.738983 348.152191,489.995270 
	C284.603455,448.318970 215.791656,418.884644 141.782623,401.616730 
	C114.021072,395.139374 85.983665,390.372375 57.544003,388.090790 
	C54.675716,387.860718 51.843487,387.181091 48.994526,386.710114 
	C49.003868,386.183716 49.013210,385.657318 49.022556,385.130890 
	C53.143951,384.780121 57.261677,384.176300 61.387299,384.116394 
	C126.867233,383.165771 190.774734,391.893005 252.966019,413.294098 
	C295.077972,427.785583 336.419373,443.768829 375.465210,465.340576 
	C378.191681,466.846863 381.271698,467.713257 384.666138,469.048218 
	C385.144989,469.219208 385.347595,469.517517 385.347595,469.517517 
z"/>
<path fill="#EAB422" opacity="1.000000" stroke="none" 
	d="
M675.473145,350.460754 
	C665.373901,362.490662 646.898560,371.542297 633.383850,370.921539 
	C633.064880,364.443237 635.454773,358.697357 638.404846,353.213074 
	C642.626465,345.364899 649.286743,339.810089 656.814453,335.373016 
	C668.210876,328.655609 679.771790,322.217255 692.282898,315.078308 
	C686.667603,327.390869 683.631897,339.885559 675.473145,350.460754 
z"/>
<path fill="#E9B422" opacity="1.000000" stroke="none" 
	d="
M132.837982,330.198914 
	C142.583328,335.702240 152.233597,340.724182 159.078018,349.539551 
	C164.832840,356.951508 167.862885,365.422638 169.215103,374.662018 
	C147.713150,376.210541 110.735214,339.277557 110.383812,316.057098 
	C117.832962,320.757568 125.174782,325.390320 132.837982,330.198914 
z"/>
<path fill="#E9B423" opacity="1.000000" stroke="none" 
	d="
M117.794975,290.201843 
	C115.143318,283.917572 112.638077,277.984192 110.132835,272.050781 
	C110.401230,271.778687 110.669617,271.506592 110.938004,271.234497 
	C112.131172,272.135071 113.491386,272.880951 114.491066,273.960663 
	C122.490196,282.600281 131.998383,289.184937 142.166840,295.003357 
	C156.600357,303.262207 165.557281,315.436523 167.635986,332.225983 
	C167.792435,333.489624 167.820862,334.769104 167.962143,336.812622 
	C149.183182,329.870056 132.861771,320.992126 123.723106,302.709991 
	C121.717094,298.696930 119.864586,294.607178 117.794975,290.201843 
z"/>
<path fill="#EAB421" opacity="1.000000" stroke="none" 
	d="
M219.871368,247.321655 
	C226.124390,241.834579 232.179642,236.573227 238.560394,231.029053 
	C236.547104,237.576569 234.866440,244.314178 232.389572,250.745148 
	C229.834183,257.380035 227.237839,264.211273 223.305725,270.043976 
	C219.401291,275.835602 213.811737,280.491211 208.907471,285.935608 
	C201.248337,289.794037 193.642883,293.361847 186.037445,296.929657 
	C185.553741,296.703491 185.070053,296.477356 184.586349,296.251190 
	C185.717316,291.093933 186.420654,285.795776 188.063858,280.807251 
	C192.096893,268.563538 201.039719,260.249908 211.337585,253.173782 
	C212.703125,252.235489 214.077148,251.309494 215.977905,250.156342 
	C216.730316,249.671021 216.952072,249.407135 217.173828,249.143250 
	C218.007080,248.611298 218.840347,248.079330 219.871368,247.321655 
z"/>
<path fill="#EAB420" opacity="1.000000" stroke="none" 
	d="
M638.827454,330.865448 
	C635.985474,331.241058 633.559631,331.563690 629.897095,332.050781 
	C631.209106,328.874786 632.422302,326.640076 633.072510,324.252075 
	C637.881165,306.588348 650.906799,296.887909 666.340698,289.317993 
	C672.325317,286.382660 678.017517,282.850922 685.379944,278.730652 
	C681.554321,289.147858 679.045654,299.104095 674.392151,307.929260 
	C667.132629,321.696625 654.073181,327.945923 638.827454,330.865448 
z"/>
<path fill="#EAB420" opacity="1.000000" stroke="none" 
	d="
M589.398804,323.334106 
	C573.532410,312.157593 569.669434,294.978424 565.608093,278.890961 
	C573.242554,283.369934 581.301453,288.097839 589.709290,292.862183 
	C590.058289,292.898560 590.396301,293.096375 590.714478,293.385742 
	C591.356140,293.776611 591.679565,293.878113 592.002991,293.979614 
	C605.692627,302.292542 614.591492,313.831848 616.396423,330.892395 
	C608.044250,330.749969 600.369629,328.274811 592.361450,324.681335 
	C591.330505,324.035980 590.774109,323.849121 590.217651,323.662262 
	C590.039795,323.577972 589.861938,323.493713 589.398804,323.334106 
z"/>
<path fill="#EAB420" opacity="1.000000" stroke="none" 
	d="
M211.748596,291.938080 
	C220.809174,286.512604 228.893860,280.273315 235.193390,271.207214 
	C235.792923,270.668121 235.946548,270.455994 236.034927,270.196594 
	C236.324417,270.006653 236.613922,269.816681 237.405960,269.779816 
	C238.077209,270.072632 238.245911,270.212341 238.414581,270.352051 
	C238.297073,271.012329 238.179550,271.672638 237.767212,272.802979 
	C237.236649,273.529083 237.120880,273.831146 237.125092,274.179199 
	C236.332916,276.510254 235.540741,278.841278 234.371735,281.648560 
	C233.689819,282.781311 233.384735,283.437836 233.079666,284.094360 
	C232.904602,285.120483 232.729538,286.146606 232.179443,287.700745 
	C230.684250,291.116669 229.564087,294.004578 228.171417,297.036163 
	C226.274963,301.107697 224.651016,305.035522 223.027069,308.963348 
	C219.103882,313.401276 215.918472,318.218140 215.039886,325.027588 
	C213.885513,327.876923 214.240234,331.294342 210.304977,330.654388 
	C211.827637,327.759857 213.350281,324.865295 214.872925,321.970764 
	C214.459152,321.735352 214.045364,321.499908 213.631577,321.264496 
	C204.708984,326.185089 195.786392,331.105682 185.919907,336.546783 
	C187.193680,317.636047 194.524048,303.472168 210.085663,293.278259 
	C210.810455,292.748535 211.030869,292.488220 211.251282,292.227936 
	C211.251282,292.227936 211.598602,292.059509 211.748596,291.938080 
z"/>
<path fill="#EAB41C" opacity="1.000000" stroke="none" 
	d="
M210.187439,330.647400 
	C214.240234,331.294342 213.885513,327.876923 215.006775,325.412994 
	C221.747208,320.001953 228.547623,315.129364 234.990570,309.822693 
	C237.944763,307.389526 240.196472,304.103485 243.513504,300.361877 
	C239.647995,323.372925 232.784973,343.333710 213.074921,356.609497 
	C211.393509,357.404510 210.238831,358.263947 209.084137,359.123352 
	C209.084137,359.123352 209.001617,359.050690 208.680267,359.052002 
	C206.905060,360.050323 205.451202,361.047272 203.997360,362.044250 
	C203.997360,362.044250 203.847794,362.265869 203.280945,362.175964 
	C198.140762,361.922546 194.954727,363.976929 193.073029,368.116577 
	C193.073029,368.116577 193.012360,368.035950 192.655396,368.008362 
	C188.034424,366.114868 190.409851,362.801086 190.581345,359.988586 
	C190.682236,358.334167 190.920532,356.688202 191.097015,355.038422 
	C191.200378,354.460052 191.303726,353.881714 191.999710,353.070251 
	C194.067200,349.913849 195.542068,346.990540 197.016937,344.067230 
	C197.149536,343.764404 197.282135,343.461578 197.879761,342.938568 
	C198.546371,342.440826 198.747955,342.163269 198.949554,341.885742 
	C198.949554,341.885742 198.931381,341.961700 199.256119,341.916443 
	C203.053452,338.202393 206.526062,334.533630 209.998657,330.864868 
	C209.998672,330.864868 210.069901,330.640411 210.187439,330.647400 
z"/>
<path fill="#E9B423" opacity="1.000000" stroke="none" 
	d="
M681.181763,237.436798 
	C683.504150,237.375381 683.690491,237.444870 682.893860,239.580948 
	C680.572510,245.805725 678.436462,252.136658 675.571838,258.111511 
	C672.583740,264.343994 669.591858,270.835571 665.255249,276.105988 
	C656.348877,286.930023 643.079834,289.207611 629.471252,292.467194 
	C631.948608,280.699432 635.482422,270.307709 644.898987,263.270660 
	C651.265930,258.512634 658.374512,254.759232 664.890991,250.185425 
	C670.440552,246.290314 675.618225,241.865250 681.181763,237.436798 
z"/>
<path fill="#EAB41D" opacity="1.000000" stroke="none" 
	d="
M576.081177,326.964355 
	C579.481018,328.810425 582.802185,330.978790 586.490601,333.164917 
	C592.101379,336.664917 597.780334,339.645721 602.493774,343.738556 
	C611.101013,351.212646 614.104187,361.571106 615.722900,373.372894 
	C605.568787,371.778442 596.833618,367.495728 587.448853,364.149048 
	C575.418457,353.496704 568.389893,340.189545 564.463318,325.244110 
	C568.276367,325.919067 572.139465,326.602875 576.081177,326.964355 
z"/>
<path fill="#E9B423" opacity="1.000000" stroke="none" 
	d="
M665.116699,233.061447 
	C656.713623,246.869965 642.287048,249.775360 628.281433,254.955368 
	C629.771851,242.473419 633.180664,231.462616 642.104187,222.876526 
	C645.077393,220.015778 648.426270,217.436630 651.934082,215.262100 
	C660.360535,210.038467 668.982727,205.130661 678.773438,199.360153 
	C674.050232,211.089203 669.685974,221.926743 665.116699,233.061447 
z"/>
<path fill="#E9B41F" opacity="1.000000" stroke="none" 
	d="
M596.334595,286.124939 
	C575.858093,273.940552 572.206421,265.067169 566.158447,238.114517 
	C568.830322,240.024857 570.805420,241.561264 572.900391,242.911545 
	C579.188416,246.964371 585.351013,251.253632 591.874756,254.890625 
	C606.737610,263.176605 614.099548,276.148407 616.177429,292.787476 
	C609.547668,290.777008 603.116638,288.506378 596.334595,286.124939 
z"/>
<path fill="#E9B421" opacity="1.000000" stroke="none" 
	d="
M615.977783,248.773117 
	C614.868713,249.328979 613.628479,250.117859 612.507507,249.974442 
	C589.067627,246.975235 575.957458,233.015640 570.970520,210.545425 
	C570.088074,206.569138 569.280884,202.576157 568.697937,198.329620 
	C577.871704,204.098953 586.844177,210.046310 595.686218,216.181610 
	C606.227966,223.496292 613.144592,233.257980 615.256592,246.761734 
	C615.336792,247.741074 615.514465,247.995453 615.839722,248.146790 
	C615.839722,248.146790 615.902100,248.571991 615.977783,248.773117 
z"/>
<path fill="#EAB420" opacity="1.000000" stroke="none" 
	d="
M124.551483,255.243958 
	C123.071198,252.087082 121.590904,248.930206 120.036972,245.237854 
	C119.933815,244.422028 119.806259,244.197372 119.580658,244.028412 
	C119.473564,243.838287 119.366478,243.648163 119.191788,242.778503 
	C119.420334,240.395447 119.716484,238.691956 120.012634,236.988464 
	C120.365273,237.357635 120.717911,237.726807 121.226799,238.607727 
	C121.703461,239.271500 122.023888,239.423538 122.344315,239.575592 
	C122.344307,239.575592 122.347496,239.629456 122.416733,239.921539 
	C122.807144,240.381775 123.128311,240.549942 123.449478,240.718109 
	C124.171623,241.351456 124.893768,241.984833 125.839973,243.187805 
	C127.429855,244.806168 128.795670,245.854904 130.161499,246.903641 
	C130.448807,246.969849 130.701111,247.102570 131.162796,247.758728 
	C131.776016,248.354828 132.144867,248.494049 132.513702,248.633270 
	C132.834259,248.793579 133.154800,248.953873 133.755554,249.562378 
	C134.495056,250.266098 134.954391,250.521652 135.413727,250.777191 
	C135.751022,250.911011 136.088333,251.044846 136.718475,251.597153 
	C137.451508,252.227509 137.891693,252.439392 138.331879,252.651291 
	C138.331879,252.651291 138.200684,252.882706 138.350098,253.084747 
	C140.295685,254.213013 142.091858,255.139252 143.888031,256.065491 
	C144.095581,256.163239 144.303131,256.260956 144.838074,256.680176 
	C145.165497,257.001648 145.604340,257.143768 145.604340,257.143768 
	C145.604340,257.143768 145.766068,257.146027 145.908478,257.502380 
	C146.567535,258.095520 147.084167,258.332306 147.600800,258.569092 
	C148.039490,258.771423 148.478180,258.973724 149.180344,259.669189 
	C150.026398,260.399048 150.608994,260.635773 151.191574,260.872498 
	C151.479095,260.924011 151.737396,261.040375 152.211746,261.675781 
	C152.828125,262.273163 153.199188,262.416351 153.570267,262.559570 
	C154.001633,262.806671 154.432999,263.053772 155.109375,263.776672 
	C155.685318,264.430603 156.016235,264.608765 156.347153,264.786926 
	C156.347153,264.786926 156.681717,264.914215 156.862091,265.325348 
	C157.496780,266.017822 157.951065,266.299164 158.405365,266.580505 
	C158.405365,266.580505 158.284805,266.690704 158.373611,266.927124 
	C158.760651,267.290741 159.058899,267.417908 159.357147,267.545044 
	C159.357147,267.545044 159.407516,267.586182 159.433167,267.875305 
	C159.751022,268.304047 160.043243,268.443634 160.335464,268.583221 
	C160.335464,268.583221 160.380142,268.623016 160.408203,268.909851 
	C160.713837,269.375732 160.991440,269.554779 161.269028,269.733826 
	C161.269028,269.733826 161.006989,269.823975 161.172302,270.052002 
	C161.615387,270.474976 161.893158,270.669891 162.170929,270.864838 
	C162.170929,270.864838 161.999939,270.906372 162.073715,271.239044 
	C163.842682,274.669739 165.537857,277.767761 167.233032,280.865784 
	C167.233047,280.865784 167.042160,280.960541 167.050537,281.298340 
	C167.829315,284.135162 168.599686,286.634186 169.370056,289.133179 
	C169.510529,289.549896 169.650986,289.966583 169.582657,290.987000 
	C169.052856,292.923126 168.731842,294.255554 168.402771,295.621399 
	C163.906937,294.112640 159.811356,292.738220 155.715775,291.363770 
	C155.715775,291.363800 155.768280,291.035156 155.638474,290.872833 
	C154.275146,290.223602 153.041626,289.736664 151.808121,289.249725 
	C151.808121,289.249725 151.939636,289.048615 151.750046,288.865967 
	C150.770660,288.413361 149.980865,288.143433 149.191071,287.873505 
	C149.191071,287.873505 149.112839,287.899292 149.035950,287.531128 
	C147.109360,286.064789 145.259674,284.966644 143.409988,283.868469 
	C143.098434,283.640381 142.786880,283.412262 142.205933,282.686584 
	C141.463440,281.890930 140.990341,281.592865 140.517258,281.294830 
	C139.187622,279.902374 137.857986,278.509949 136.317719,276.546478 
	C135.618134,275.413147 135.129196,274.850861 134.640259,274.288544 
	C134.640259,274.288544 134.900940,274.076538 134.783569,273.888611 
	C134.132065,273.123596 133.597946,272.546448 133.063828,271.969330 
	C133.063828,271.969330 132.997055,271.981750 133.031616,271.598083 
	C131.623245,268.832306 130.180328,266.450165 128.737396,264.068054 
	C128.737411,264.068054 128.574783,263.868408 128.594818,263.348969 
	C127.260406,260.300995 125.905945,257.772491 124.551483,255.243958 
z"/>
<path fill="#EAB421" opacity="1.000000" stroke="none" 
	d="
M228.843979,201.332489 
	C228.672516,204.404251 228.703842,207.851715 227.886902,211.084839 
	C224.979568,222.590942 220.690613,233.402740 210.809326,241.374359 
	C210.237488,241.973007 209.778290,242.261749 208.822906,242.778412 
	C207.420120,243.872849 206.513550,244.739349 205.606964,245.605865 
	C205.606964,245.605850 205.265320,245.726700 204.853180,245.825943 
	C204.176834,246.142929 203.912628,246.360672 203.648407,246.578415 
	C197.725372,249.439270 191.802338,252.300125 185.879303,255.160995 
	C185.398453,254.948669 184.917603,254.736343 184.436752,254.524017 
	C185.690598,249.210770 186.566345,243.772644 188.271759,238.608521 
	C192.741379,225.074112 203.411362,217.307831 215.099625,210.512161 
	C219.766647,207.798706 224.146896,204.592041 228.843979,201.332489 
z"/>
<path fill="#E4BA44" opacity="1.000000" stroke="none" 
	d="
M182.421432,219.377914 
	C177.567383,228.426697 179.309082,238.266632 179.331406,247.795639 
	C179.430542,290.094360 179.843002,332.392334 180.074188,374.690948 
	C180.084930,376.657593 179.442215,378.627808 179.103836,380.596375 
	C178.386322,380.679626 177.668808,380.762848 176.951309,380.846100 
	C176.348557,378.579956 175.233871,376.316650 175.221252,374.047241 
	C175.075089,347.735321 174.993149,321.422089 175.105148,295.110077 
	C175.189484,275.295288 175.567459,255.481659 175.839111,235.667847 
	C175.929337,229.088394 174.908234,222.909897 171.696442,216.927567 
	C164.676208,203.851654 166.712051,190.492767 171.587357,177.279312 
	C173.116257,173.135544 174.973984,169.113083 177.218979,163.750534 
	C186.191422,181.123535 191.524490,197.429276 184.200317,215.691559 
	C183.863007,215.878769 183.660919,215.697495 183.747513,215.288544 
	C184.561539,210.668945 185.487534,206.481216 185.977112,202.243088 
	C187.179550,191.833847 183.549988,182.348434 179.926178,172.909378 
	C179.400208,171.539352 178.293777,170.392181 177.148468,168.683029 
	C167.016769,188.761078 166.249847,207.796524 177.574875,225.887054 
	C178.810898,223.881287 180.343292,221.394547 182.012131,219.025330 
	C182.148575,219.142853 182.421432,219.377914 182.421432,219.377914 
z"/>
<path fill="#E9B424" opacity="1.000000" stroke="none" 
	d="
M156.986099,224.016632 
	C165.632431,232.903717 169.058304,243.530777 170.106857,255.305893 
	C149.807526,254.598389 125.621956,224.196564 126.017265,200.971619 
	C136.097153,208.454041 146.413864,216.112228 156.986099,224.016632 
z"/>
<path fill="#E9B524" opacity="1.000000" stroke="none" 
	d="
M623.169128,229.002335 
	C620.417542,222.965210 617.280884,217.069687 614.997253,210.860458 
	C610.695740,199.164368 614.134705,187.905624 617.870544,176.782471 
	C619.077393,173.189163 620.465210,169.656601 622.147217,165.067902 
	C629.550842,176.935150 635.029175,188.472763 633.290405,201.938034 
	C632.607239,207.228149 630.192688,212.332336 628.280640,217.413574 
	C626.880920,221.133392 625.014343,224.677551 623.199829,228.653168 
	C623.043762,229.006348 623.169128,229.002335 623.169128,229.002335 
z"/>
<path fill="#5E8650" opacity="1.000000" stroke="none" 
	d="
M622.981201,229.446106 
	C623.169128,229.002335 623.043762,229.006348 623.012207,229.006638 
	C623.593445,237.269318 624.681824,245.528519 624.737061,253.794632 
	C624.984070,290.717651 624.932434,327.642639 624.998962,364.566925 
	C625.009460,370.388580 625.136414,376.210907 625.072571,382.031403 
	C625.054382,383.690582 624.553711,385.344452 624.274292,387.000793 
	C623.711609,387.016022 623.148987,387.031281 622.586365,387.046539 
	C622.309204,384.967407 621.790833,382.888214 621.791443,380.809143 
	C621.799072,353.194855 621.879517,325.580566 621.857300,297.506470 
	C621.840820,284.681519 621.908936,272.316406 621.884521,259.498932 
	C622.125793,249.327682 622.459534,239.608780 622.981201,229.446106 
z"/>
<path fill="#EAB420" opacity="1.000000" stroke="none" 
	d="
M190.843781,355.303589 
	C190.920532,356.688202 190.682236,358.334167 190.581345,359.988586 
	C190.409851,362.801086 188.034424,366.114868 192.700577,368.030823 
	C191.365570,369.459229 189.628433,370.837585 187.891312,372.215942 
	C187.394836,371.952393 186.898361,371.688843 186.401886,371.425293 
	C187.798111,366.139771 189.194336,360.854279 190.843781,355.303589 
z"/>
<path fill="#C4E3CF" opacity="1.000000" stroke="none" 
	d="
M213.703979,651.784912 
	C211.319412,656.132080 208.707825,660.287903 206.096222,664.443787 
	C205.783325,664.262024 205.470413,664.080322 205.157516,663.898560 
	C207.572098,659.375610 209.986664,654.852661 212.667450,650.116211 
	C213.114731,650.466370 213.295837,651.029968 213.703979,651.784912 
z"/>
<path fill="#E4C059" opacity="1.000000" stroke="none" 
	d="
M155.888245,291.652100 
	C159.811356,292.738220 163.906937,294.112640 168.402771,295.621399 
	C168.731842,294.255554 169.052856,292.923126 169.587250,291.318848 
	C170.279343,293.033356 170.758057,295.019714 171.236786,297.006104 
	C170.871292,297.403870 170.505783,297.801636 170.140289,298.199402 
	C165.447098,296.113068 160.753891,294.026764 155.888245,291.652100 
z"/>
<path fill="#EAB420" opacity="1.000000" stroke="none" 
	d="
M209.663300,330.941772 
	C206.526062,334.533630 203.053452,338.202393 199.228638,341.888672 
	C202.360260,338.277039 205.844116,334.647827 209.663300,330.941772 
z"/>
<path fill="#0D4E29" opacity="1.000000" stroke="none" 
	d="
M394.679077,464.311157 
	C393.310822,461.140564 395.094299,459.790710 397.901794,459.239746 
	C400.163177,458.795990 402.449829,458.481232 405.169556,458.141357 
	C402.083160,460.193542 398.552521,462.213623 394.679077,464.311157 
z"/>
<path fill="#0D4E29" opacity="1.000000" stroke="none" 
	d="
M382.112305,459.310364 
	C382.551300,456.955109 383.051788,454.922211 383.552307,452.889313 
	C383.961945,452.842072 384.371582,452.794830 384.781250,452.747589 
	C384.998688,456.320374 385.216156,459.893127 385.165649,463.754333 
	C383.989716,462.572754 383.081787,461.102722 382.112305,459.310364 
z"/>
<path fill="#E4C059" opacity="1.000000" stroke="none" 
	d="
M119.892395,236.676819 
	C119.716484,238.691956 119.420334,240.395447 119.108124,242.462067 
	C117.431763,239.575409 115.771461,236.325623 114.111168,233.075821 
	C114.465042,232.777023 114.818916,232.478210 115.172791,232.179413 
	C116.705917,233.574677 118.239044,234.969925 119.892395,236.676819 
z"/>
<path fill="#EAB420" opacity="1.000000" stroke="none" 
	d="
M193.422058,368.063354 
	C194.954727,363.976929 198.140762,361.922546 203.158600,362.122070 
	C200.325775,364.108734 197.048431,366.059448 193.422058,368.063354 
z"/>
<path fill="#EAB420" opacity="1.000000" stroke="none" 
	d="
M196.719452,344.222382 
	C195.542068,346.990540 194.067200,349.913849 192.249512,352.899872 
	C193.411758,350.100891 194.916855,347.239227 196.719452,344.222382 
z"/>
<path fill="#E4C059" opacity="1.000000" stroke="none" 
	d="
M167.243179,280.483521 
	C165.537857,277.767761 163.842682,274.669739 162.154816,271.204407 
	C163.859222,273.925140 165.556274,277.013214 167.243179,280.483521 
z"/>
<path fill="#E4C059" opacity="1.000000" stroke="none" 
	d="
M169.471527,288.764404 
	C168.599686,286.634186 167.829315,284.135162 167.136841,281.235840 
	C168.000824,283.355530 168.786911,285.875580 169.471527,288.764404 
z"/>
<path fill="#E4C059" opacity="1.000000" stroke="none" 
	d="
M143.500732,284.170776 
	C145.259674,284.966644 147.109360,286.064789 149.030060,287.490356 
	C147.264542,286.702881 145.428009,285.588013 143.500732,284.170776 
z"/>
<path fill="#E4C059" opacity="1.000000" stroke="none" 
	d="
M128.757690,264.435974 
	C130.180328,266.450165 131.623245,268.832306 133.057831,271.576447 
	C131.625687,269.560272 130.201843,267.182098 128.757690,264.435974 
z"/>
<path fill="#E4C059" opacity="1.000000" stroke="none" 
	d="
M124.617737,255.610672 
	C125.905945,257.772491 127.260406,260.300995 128.599762,263.220306 
	C127.284431,261.066528 125.984215,258.521942 124.617737,255.610672 
z"/>
<path fill="#EAB420" opacity="1.000000" stroke="none" 
	d="
M209.479584,359.080841 
	C210.238831,358.263947 211.393509,357.404510 212.785431,356.773438 
	C213.011368,357.442841 213.000061,357.883942 212.983276,358.654968 
	C211.943527,359.002686 210.909271,359.020508 209.479584,359.080841 
z"/>
<path fill="#E4C059" opacity="1.000000" stroke="none" 
	d="
M130.053604,246.593674 
	C128.795670,245.854904 127.429855,244.806168 126.016083,243.419907 
	C127.293983,244.149490 128.619843,245.216599 130.053604,246.593674 
z"/>
<path fill="#E4C059" opacity="1.000000" stroke="none" 
	d="
M143.737488,255.769516 
	C142.091858,255.139252 140.295685,254.213013 138.392273,252.958588 
	C140.052338,253.578125 141.819641,254.525833 143.737488,255.769516 
z"/>
<path fill="#EAB420" opacity="1.000000" stroke="none" 
	d="
M204.336014,362.007172 
	C205.451202,361.047272 206.905060,360.050323 208.731812,359.071075 
	C207.628052,360.049225 206.151352,361.009674 204.336014,362.007172 
z"/>
<path fill="#F3E8A9" opacity="1.000000" stroke="none" 
	d="
M205.962372,245.699066 
	C206.513550,244.739349 207.420120,243.872849 208.654480,242.992599 
	C208.094101,243.916672 207.205933,244.854477 205.962372,245.699066 
z"/>
<path fill="#0D4E29" opacity="1.000000" stroke="none" 
	d="
M385.211884,467.300110 
	C386.376373,467.017426 387.409637,467.043335 388.829132,467.124207 
	C388.135834,467.901794 387.056274,468.624420 385.662140,469.432281 
	C385.347595,469.517517 385.144989,469.219208 385.036499,469.075195 
	C384.978882,468.490356 385.029755,468.049500 385.211884,467.300110 
z"/>
<path fill="#0D4E29" opacity="1.000000" stroke="none" 
	d="
M389.479004,467.185303 
	C390.192047,466.485229 391.230408,465.745880 392.649170,465.012939 
	C391.954498,465.728210 390.879425,466.437103 389.479004,467.185303 
z"/>
<path fill="#E4BA44" opacity="1.000000" stroke="none" 
	d="
M183.963943,215.969528 
	C183.671753,217.022705 183.278641,217.985138 182.653473,219.162735 
	C182.421432,219.377914 182.148575,219.142853 182.063416,218.704010 
	C182.539124,217.409286 183.100021,216.553391 183.660919,215.697495 
	C183.660919,215.697495 183.863007,215.878769 183.963943,215.969528 
z"/>
<path fill="#E4C059" opacity="1.000000" stroke="none" 
	d="
M151.985291,289.529114 
	C153.041626,289.736664 154.275146,290.223602 155.622482,291.036896 
	C154.545029,290.845032 153.353745,290.326782 151.985291,289.529114 
z"/>
<path fill="#E4C059" opacity="1.000000" stroke="none" 
	d="
M149.355469,288.142975 
	C149.980865,288.143433 150.770660,288.413361 151.700348,288.975342 
	C151.066772,288.982391 150.293320,288.697418 149.355469,288.142975 
z"/>
<path fill="#E4C059" opacity="1.000000" stroke="none" 
	d="
M134.666565,274.584717 
	C135.129196,274.850861 135.618134,275.413147 136.125793,276.278076 
	C135.660614,276.014069 135.176743,275.447510 134.666565,274.584717 
z"/>
<path fill="#E4C059" opacity="1.000000" stroke="none" 
	d="
M133.069534,272.276306 
	C133.597946,272.546448 134.132065,273.123596 134.666367,274.009003 
	C134.136108,273.739288 133.605682,273.161316 133.069534,272.276306 
z"/>
<path fill="#F3E8A9" opacity="1.000000" stroke="none" 
	d="
M436.551025,143.640106 
	C436.294128,143.414703 436.199615,143.086395 436.201660,142.516998 
	C436.436615,142.696350 436.575012,143.116776 436.551025,143.640106 
z"/>
<path fill="#E4C059" opacity="1.000000" stroke="none" 
	d="
M140.611481,281.566467 
	C140.990341,281.592865 141.463440,281.890930 142.004578,282.477783 
	C141.616989,282.457123 141.161346,282.147614 140.611481,281.566467 
z"/>
<path fill="#E4C059" opacity="1.000000" stroke="none" 
	d="
M158.329193,266.315277 
	C157.951065,266.299164 157.496780,266.017822 156.989517,265.451050 
	C157.375381,265.460419 157.814209,265.755219 158.329193,266.315277 
z"/>
<path fill="#E4C059" opacity="1.000000" stroke="none" 
	d="
M151.036743,260.605377 
	C150.608994,260.635773 150.026398,260.399048 149.349899,259.843170 
	C149.797958,259.795441 150.339935,260.066864 151.036743,260.605377 
z"/>
<path fill="#F3E8A9" opacity="1.000000" stroke="none" 
	d="
M590.342102,323.964722 
	C590.774109,323.849121 591.330505,324.035980 592.072693,324.459717 
	C591.661133,324.553436 591.063843,324.410309 590.342102,323.964722 
z"/>
<path fill="#E4C059" opacity="1.000000" stroke="none" 
	d="
M147.466827,258.312927 
	C147.084167,258.332306 146.567535,258.095520 145.955322,257.568298 
	C146.350769,257.537506 146.841812,257.797119 147.466827,258.312927 
z"/>
<path fill="#E4C059" opacity="1.000000" stroke="none" 
	d="
M135.317841,250.521240 
	C134.954391,250.521652 134.495056,250.266098 133.951660,249.748032 
	C134.319031,249.745438 134.770493,250.005356 135.317841,250.521240 
z"/>
<path fill="#E4C059" opacity="1.000000" stroke="none" 
	d="
M138.246979,252.410370 
	C137.891693,252.439392 137.451508,252.227509 136.932571,251.766541 
	C137.289902,251.734787 137.725998,251.952118 138.246979,252.410370 
z"/>
<path fill="#0D4E29" opacity="1.000000" stroke="none" 
	d="
M393.290161,465.022461 
	C393.290955,464.809387 393.568390,464.591675 394.115631,464.354095 
	C394.112549,464.562103 393.839661,464.789948 393.290161,465.022461 
z"/>
<path fill="#E4C059" opacity="1.000000" stroke="none" 
	d="
M153.416611,262.313965 
	C153.199188,262.416351 152.828125,262.273163 152.354156,261.835754 
	C152.588486,261.717163 152.925720,261.892761 153.416611,262.313965 
z"/>
<path fill="#E4C059" opacity="1.000000" stroke="none" 
	d="
M145.578629,256.994080 
	C145.604340,257.143768 145.165497,257.001648 145.092422,256.911926 
	C145.205139,256.640747 145.382996,256.648132 145.578629,256.994080 
z"/>
<path fill="#F3E8A9" opacity="1.000000" stroke="none" 
	d="
M216.909241,249.161804 
	C216.952072,249.407135 216.730316,249.671021 216.240570,249.944092 
	C216.196594,249.695618 216.420624,249.437988 216.909241,249.161804 
z"/>
<path fill="#E4C059" opacity="1.000000" stroke="none" 
	d="
M160.266785,268.361298 
	C160.043243,268.443634 159.751022,268.304047 159.451141,267.902405 
	C159.773575,267.687927 160.025131,267.854248 160.266785,268.361298 
z"/>
<path fill="#E4C059" opacity="1.000000" stroke="none" 
	d="
M132.360687,248.386703 
	C132.144867,248.494049 131.776016,248.354828 131.294342,247.929626 
	C131.523544,247.809143 131.865601,247.974640 132.360687,248.386703 
z"/>
<path fill="#F3E8A9" opacity="1.000000" stroke="none" 
	d="
M615.881287,247.915161 
	C615.514465,247.995453 615.336792,247.741074 615.369324,247.149658 
	C615.723206,247.090042 615.886841,247.345993 615.881287,247.915161 
z"/>
<path fill="#F3E8A9" opacity="1.000000" stroke="none" 
	d="
M203.922699,246.617401 
	C203.912628,246.360672 204.176834,246.142929 204.704376,245.929321 
	C204.710800,246.174438 204.453888,246.415390 203.922699,246.617401 
z"/>
<path fill="#E4C059" opacity="1.000000" stroke="none" 
	d="
M156.232162,264.528473 
	C156.016235,264.608765 155.685318,264.430603 155.262482,263.975769 
	C155.486115,263.889374 155.801651,264.079681 156.232162,264.528473 
z"/>
<path fill="#E4C059" opacity="1.000000" stroke="none" 
	d="
M159.280548,267.327606 
	C159.058899,267.417908 158.760651,267.290741 158.450882,266.900696 
	C158.766891,266.677643 159.021759,266.835083 159.280548,267.327606 
z"/>
<path fill="#F3E8A9" opacity="1.000000" stroke="none" 
	d="
M591.871582,293.751190 
	C591.679565,293.878113 591.356140,293.776611 590.899902,293.448730 
	C591.091492,293.322449 591.415833,293.422607 591.871582,293.751190 
z"/>
<path fill="#E4C059" opacity="1.000000" stroke="none" 
	d="
M161.218567,269.493561 
	C160.991440,269.554779 160.713837,269.375732 160.423645,268.935486 
	C160.758301,268.743164 161.010651,268.936188 161.218567,269.493561 
z"/>
<path fill="#E4C059" opacity="1.000000" stroke="none" 
	d="
M162.119797,270.612335 
	C161.893158,270.669891 161.615387,270.474976 161.304810,270.016937 
	C161.537567,269.955811 161.803116,270.157837 162.119797,270.612335 
z"/>
<path fill="#EAB420" opacity="1.000000" stroke="none" 
	d="
M198.688995,341.967590 
	C198.747955,342.163269 198.546371,342.440826 198.115295,342.840332 
	C198.066696,342.657990 198.247574,342.353699 198.688995,341.967590 
z"/>
<path fill="#E4C059" opacity="1.000000" stroke="none" 
	d="
M123.352036,240.472046 
	C123.128311,240.549942 122.807144,240.381775 122.442093,239.930786 
	C122.683662,239.840622 122.969124,240.033310 123.352036,240.472046 
z"/>
<path fill="#E4C059" opacity="1.000000" stroke="none" 
	d="
M122.248772,239.336273 
	C122.023888,239.423538 121.703461,239.271500 121.340446,238.838898 
	C121.582977,238.737869 121.868103,238.917419 122.248772,239.336273 
z"/>
<path fill="#E4C059" opacity="1.000000" stroke="none" 
	d="
M119.525146,244.227081 
	C119.806259,244.197372 119.933815,244.422028 119.940262,244.900024 
	C119.667595,244.940521 119.518402,244.716537 119.525146,244.227081 
z"/>
<path fill="#F3E8A9" opacity="1.000000" stroke="none" 
	d="
M210.986694,292.260345 
	C211.030869,292.488220 210.810455,292.748535 210.330658,293.053040 
	C210.288223,292.829102 210.505173,292.560944 210.986694,292.260345 
z"/>
<path fill="#EBB516" opacity="1.000000" stroke="none" 
	d="
M317.838379,311.625427 
	C315.248596,317.045654 312.270874,321.944916 310.176056,327.196381 
	C303.207184,344.666443 298.099426,362.685822 296.241730,381.456787 
	C295.640930,387.527466 296.147461,393.707794 296.147461,399.837952 
	C295.554169,399.917267 294.960876,399.996552 294.367615,400.075836 
	C293.581635,395.087860 292.247192,390.115326 292.106445,385.109222 
	C291.551941,365.390228 295.823486,346.517059 303.840546,328.611694 
	C307.182739,321.147278 311.939728,314.316345 316.164276,306.817688 
	C316.801727,308.047272 317.328278,309.656555 317.838379,311.625427 
z"/>
<path fill="#F9DD75" opacity="1.000000" stroke="none" 
	d="
M228.443924,296.892456 
	C229.564087,294.004578 230.684250,291.116669 232.065125,288.074463 
	C232.965958,287.966980 233.606110,288.013855 234.723373,288.113434 
	C233.613266,290.940094 232.026047,293.714050 229.843048,296.727112 
	C228.979492,296.941650 228.711716,296.917053 228.443924,296.892456 
z"/>
<path fill="#F8D558" opacity="1.000000" stroke="none" 
	d="
M228.171417,297.036163 
	C228.711716,296.917053 228.979492,296.941650 229.649628,296.999878 
	C227.900558,300.896698 225.749100,304.759918 223.312347,308.793243 
	C224.651016,305.035522 226.274963,301.107697 228.171417,297.036163 
z"/>
<path fill="#ECB613" opacity="1.000000" stroke="none" 
	d="
M505.691498,329.377625 
	C502.197479,322.215576 498.875183,315.389954 495.010681,307.450409 
	C511.675964,316.794891 527.759949,379.809296 520.842834,405.938171 
	C519.700989,379.750946 516.746582,353.930420 505.691498,329.377625 
z"/>
<path fill="#E5C14D" opacity="1.000000" stroke="none" 
	d="
M237.841492,267.883820 
	C239.054047,265.704163 240.266602,263.524536 241.479172,261.344879 
	C241.902710,261.552063 242.326263,261.759247 242.749817,261.966400 
	C241.872925,263.906738 240.996033,265.847076 239.403870,267.892700 
	C238.406235,267.959961 238.123856,267.921875 237.841492,267.883820 
z"/>
<path fill="#E5C14D" opacity="1.000000" stroke="none" 
	d="
M233.329376,283.952759 
	C233.384735,283.437836 233.689819,282.781311 234.240417,281.997314 
	C234.183670,282.516968 233.881393,283.164062 233.329376,283.952759 
z"/>
<path fill="#EAB420" opacity="1.000000" stroke="none" 
	d="
M237.743164,268.147125 
	C238.123856,267.921875 238.406235,267.959961 239.116638,268.024963 
	C239.302612,268.651459 239.060532,269.250946 238.616516,270.101257 
	C238.245911,270.212341 238.077209,270.072632 237.657303,269.712494 
	C237.485672,269.131531 237.565247,268.770996 237.743164,268.147125 
z"/>
<path fill="#E5C14D" opacity="1.000000" stroke="none" 
	d="
M235.843933,270.272217 
	C235.946548,270.455994 235.792923,270.668121 235.402451,270.931580 
	C235.273865,270.742218 235.414566,270.514771 235.843933,270.272217 
z"/>
<path fill="#E5C14D" opacity="1.000000" stroke="none" 
	d="
M237.315979,274.024780 
	C237.120880,273.831146 237.236649,273.529083 237.667755,273.124268 
	C237.855194,273.317841 237.736435,273.616150 237.315979,274.024780 
z"/>
<path fill="#EBB319" opacity="1.000000" stroke="none" 
	d="
M183.747513,215.288544 
	C183.100021,216.553391 182.539124,217.409286 181.926971,218.586502 
	C180.343292,221.394547 178.810898,223.881287 177.574875,225.887054 
	C166.249847,207.796524 167.016769,188.761078 177.148468,168.683029 
	C178.293777,170.392181 179.400208,171.539352 179.926178,172.909378 
	C183.549988,182.348434 187.179550,191.833847 185.977112,202.243088 
	C185.487534,206.481216 184.561539,210.668945 183.747513,215.288544 
z"/>
</svg>