<?xml version="1.0" standalone="no"?>
<!DOCTYPE svg PUBLIC "-//W3C//DTD SVG 20010904//EN"
 "http://www.w3.org/TR/2001/REC-SVG-20010904/DTD/svg10.dtd">
<svg version="1.0" xmlns="http://www.w3.org/2000/svg"
 width="500.000000pt" height="500.000000pt" viewBox="0 0 500.000000 500.000000"
 preserveAspectRatio="xMidYMid meet">
<metadata>
Created by potrace 1.16, written by Peter Selinger 2001-2019
</metadata>
<g transform="translate(0.000000,500.000000) scale(0.100000,-0.100000)"
fill="#000000" stroke="none">
<path d="M2447 4020 c-46 -50 -81 -124 -81 -172 0 -21 -4 -32 -8 -25 -16 25
-7 -94 12 -154 22 -72 75 -169 91 -169 7 0 10 14 7 34 -2 19 -1 33 3 30 3 -2
10 42 15 99 8 109 11 106 16 -15 2 -43 -1 -74 -6 -71 -4 3 -7 -10 -4 -30 2
-20 0 -33 -5 -30 -5 3 -7 -46 -5 -111 1 -64 0 -116 -4 -116 -5 0 -8 -8 -9 -17
0 -10 -8 -1 -17 20 -10 22 -21 35 -26 30 -5 -4 -6 -3 -3 4 9 14 -2 45 -13 38
-5 -3 -12 0 -16 6 -5 8 -3 9 5 4 9 -5 12 -2 9 11 -2 11 -9 18 -15 17 -6 -1
-10 5 -9 15 0 9 -5 16 -12 14 -8 -1 -11 2 -7 8 15 24 -114 148 -138 133 -5 -3
-7 -1 -4 5 10 15 -81 56 -125 56 -20 1 -34 4 -32 8 3 5 -29 8 -70 8 -72 0 -76
-1 -76 -22 0 -48 55 -162 72 -152 7 4 8 3 4 -5 -4 -6 2 -23 13 -37 31 -40 110
-96 126 -90 8 3 14 0 12 -6 -3 -14 131 -61 156 -54 9 2 15 1 12 -3 -2 -4 11
-15 30 -24 44 -21 110 -105 132 -168 10 -27 20 -49 23 -49 3 0 14 26 26 58 12
34 25 56 33 54 7 -1 10 1 7 6 -3 5 8 24 23 43 29 35 93 72 144 83 15 4 25 11
22 15 -3 5 3 7 13 4 43 -11 230 103 218 133 -3 8 -2 13 3 10 21 -13 88 107 93
169 l3 30 -78 3 c-43 2 -76 -1 -74 -5 3 -5 -11 -9 -31 -9 -20 0 -59 -11 -87
-24 -62 -30 -190 -153 -181 -175 3 -10 2 -13 -4 -10 -6 4 -30 -34 -55 -87 -36
-76 -44 -88 -44 -63 -1 23 -4 27 -11 15 -7 -11 -10 3 -10 45 0 45 3 56 11 45
8 -12 10 -9 6 13 -2 15 0 27 6 27 5 0 7 13 5 29 -2 17 -2 28 2 26 7 -4 65 117
92 192 31 89 18 197 -34 291 -27 50 -78 102 -99 102 -9 0 -33 -18 -52 -40z"/>
<path d="M1336 2751 c-10 -11 -15 -25 -10 -32 4 -7 3 -10 -4 -6 -10 7 -95
-117 -95 -140 0 -7 -4 -10 -8 -7 -11 6 -31 -34 -24 -46 4 -6 1 -9 -7 -8 -7 2
-12 -5 -12 -14 1 -10 -2 -15 -7 -13 -13 8 -82 -102 -73 -116 4 -8 3 -10 -4 -5
-15 9 -126 -159 -116 -176 5 -7 3 -8 -5 -3 -9 5 -12 -1 -9 -21 2 -23 21 -41
93 -92 143 -101 195 -133 205 -127 5 3 12 0 16 -6 5 -8 2 -10 -7 -5 -8 4 -5 0
5 -8 21 -17 45 -20 61 -8 23 17 196 292 190 302 -4 6 -1 9 7 8 7 -2 12 5 12
14 -1 10 3 16 10 15 6 -1 10 6 10 15 -1 10 3 16 10 15 6 -1 10 6 10 15 -1 10
1 16 5 13 13 -7 126 178 128 210 2 28 -4 35 -69 76 -84 51 -94 56 -83 39 5 -9
4 -11 -4 -6 -6 4 -9 11 -6 15 6 11 -160 121 -183 121 -11 0 -27 -9 -36 -19z"/>
<path d="M2367 2563 c12 -2 28 -14 36 -26 l14 -22 -135 4 c-74 1 -132 -1 -129
-5 3 -5 -18 -8 -46 -6 -38 2 -48 0 -37 -7 11 -8 -7 -9 -60 -5 -41 3 -111 1
-154 -4 -68 -9 -82 -14 -102 -39 -13 -15 -21 -34 -19 -40 2 -7 0 -12 -4 -10
-14 3 -72 -82 -65 -95 4 -6 3 -8 -3 -5 -14 9 -46 -40 -37 -55 4 -6 3 -8 -3 -5
-14 9 -46 -40 -37 -55 4 -7 3 -8 -4 -4 -13 8 -54 -52 -46 -66 3 -4 -1 -8 -8
-8 -18 0 -148 -200 -148 -227 0 -25 27 -56 41 -47 5 3 8 0 7 -8 -2 -7 3 -12
10 -10 8 1 11 -2 7 -7 -7 -12 29 -33 40 -23 5 4 5 2 1 -5 -6 -11 42 -53 62
-53 16 0 72 72 65 83 -3 6 -2 7 4 4 5 -3 25 9 43 28 19 19 40 35 47 35 7 0 13
5 13 10 0 15 67 12 100 -5 38 -20 80 -76 80 -107 0 -22 4 -24 47 -27 25 -1 55
-7 65 -12 10 -5 24 -7 31 -3 6 4 9 4 5 -1 -4 -4 4 -21 17 -37 14 -16 25 -38
25 -49 0 -11 4 -18 9 -15 4 3 6 -5 4 -18 -5 -23 -1 -25 50 -31 77 -10 137 -69
137 -135 0 -18 16 -25 42 -21 4 0 19 -4 32 -9 21 -8 28 -6 36 11 11 20 11 20
37 0 14 -11 65 -59 115 -106 49 -47 94 -82 100 -79 6 4 8 3 5 -3 -4 -6 18 -34
49 -62 51 -46 60 -51 103 -51 66 0 101 34 101 97 0 50 3 46 -174 211 -54 50
-103 89 -108 86 -5 -3 -7 -1 -6 5 2 5 -31 41 -72 80 -60 56 -72 73 -62 83 13
13 9 16 144 -110 41 -38 72 -60 79 -56 7 4 9 3 6 -3 -4 -6 43 -57 105 -114
131 -123 144 -133 164 -125 9 3 12 1 9 -4 -3 -6 3 -10 14 -10 27 0 52 11 46
20 -3 4 3 7 12 6 10 0 25 14 37 35 34 63 23 80 -168 254 -54 50 -103 90 -110
90 -6 0 -11 5 -11 12 0 17 -43 55 -55 48 -6 -4 -7 1 -3 11 5 14 3 16 -12 10
-11 -4 -16 -4 -12 0 4 4 -13 29 -39 55 -34 34 -42 48 -31 52 15 6 54 -22 113
-81 77 -75 136 -122 146 -116 6 4 8 3 5 -3 -6 -10 28 -44 161 -165 61 -56 104
-68 155 -43 19 9 39 27 46 41 14 31 15 77 1 69 -6 -3 -7 1 -4 10 4 11 -5 29
-27 51 -34 35 -62 48 -38 17 13 -16 12 -17 -3 -4 -10 7 -16 17 -13 21 7 12
-216 221 -228 213 -5 -3 -7 -1 -4 4 8 13 -27 46 -38 36 -4 -5 -5 -3 -2 3 9 16
-88 108 -104 99 -7 -5 -10 -4 -6 2 8 13 -37 56 -47 46 -4 -5 -6 -2 -4 6 5 21
-60 61 -99 61 -47 0 -80 -19 -186 -108 -116 -97 -130 -106 -197 -119 -55 -11
-111 -13 -105 -3 2 3 -9 11 -24 18 -16 7 -36 28 -46 47 -11 18 -22 32 -25 30
-11 -7 2 70 15 88 25 36 205 215 347 345 37 34 64 62 59 62 -5 0 -14 -7 -21
-15 -11 -13 -15 -14 -29 -2 -9 8 -23 17 -31 20 -10 4 -11 6 -2 6 8 1 3 14 -14
36 -17 22 -34 35 -48 34 -21 -2 -21 -2 1 -6z"/>
<path d="M2467 1333 c-4 -3 -7 -24 -7 -46 0 -29 -9 -52 -35 -89 -33 -45 -39
-78 -13 -62 6 4 8 2 4 -4 -3 -5 20 -33 51 -61 52 -45 63 -51 103 -51 66 1 100
35 100 101 0 28 -12 45 -80 111 -48 47 -85 76 -92 72 -6 -4 -8 -3 -5 3 8 12
-17 36 -26 26z"/>
</g>
</svg>
